<svg xmlns="http://www.w3.org/2000/svg" width="900" height="720" viewBox="0 0 900 720" fill="none">
  <defs>
    <linearGradient id="stacked-g1" x1="6" y1="10" x2="114" y2="110" gradientUnits="userSpaceOnUse">
      <stop offset="0" stop-color="#0F3D91"/>
      <stop offset="0.56" stop-color="#2B63BE"/>
      <stop offset="1" stop-color="#20C5C7"/>
    </linearGradient>
    <linearGradient id="stacked-g2" x1="6" y1="10" x2="114" y2="40" gradientUnits="userSpaceOnUse">
      <stop offset="0" stop-color="#123B84"/>
      <stop offset="1" stop-color="#11B7D9"/>
    </linearGradient>
    <filter id="stacked-shadow" x="-20%" y="-20%" width="140%" height="140%">
      <feDropShadow dx="0" dy="8" stdDeviation="9" flood-color="#0E224D" flood-opacity="0.18"/>
    </filter>
  </defs>

  <g transform="translate(300 64) scale(2.45)" filter="url(#stacked-shadow)">
    <rect x="6" y="10" width="108" height="100" rx="24" fill="url(#stacked-g1)"/>
    <rect x="6" y="10" width="108" height="30" rx="24" fill="url(#stacked-g2)"/>
    <rect x="26" y="0" width="12" height="22" rx="6" fill="#FFFFFF"/>
    <rect x="82" y="0" width="12" height="22" rx="6" fill="#FFFFFF"/>

    <rect x="27" y="53" width="16" height="14" rx="4" fill="#FFFFFF38"/>
    <rect x="50" y="53" width="16" height="14" rx="4" fill="#FFFFFF38"/>
    <rect x="73" y="53" width="16" height="14" rx="4" fill="#FFFFFF38"/>
    <rect x="27" y="73" width="16" height="14" rx="4" fill="#FFFFFF28"/>
    <rect x="50" y="73" width="16" height="14" rx="4" fill="#FFFFFF28"/>
    <rect x="73" y="73" width="16" height="14" rx="4" fill="#FFFFFF28"/>

    <circle cx="84" cy="82" r="20" fill="#0F3D91"/>
    <path d="M74 82L81 89L94 75" stroke="#FFFFFF" stroke-width="6" stroke-linecap="round" stroke-linejoin="round"/>
  </g>

  <text x="450" y="486" text-anchor="middle" fill="#103A7E" font-family="Inter, Avenir Next, Segoe UI, Arial, sans-serif" font-size="118" font-weight="800" letter-spacing="-2.1">Plate<tspan fill="#18BBC6">Book</tspan></text>
  <text x="450" y="548" text-anchor="middle" fill="#627085" font-family="Inter, Avenir Next, Segoe UI, Arial, sans-serif" font-size="42" font-weight="600" letter-spacing="0.4">Booking System</text>
</svg>
