<svg xmlns="http://www.w3.org/2000/svg" width="512" height="512" viewBox="0 0 512 512" fill="none">
  <defs>
    <linearGradient id="gradA" x1="0" y1="0" x2="1" y2="1">
      <stop offset="0%" stop-color="#0F3D91"/>
      <stop offset="100%" stop-color="#20C5C7"/>
    </linearGradient>
    <linearGradient id="gradB" x1="0" y1="0" x2="1" y2="1">
      <stop offset="0%" stop-color="#123B84"/>
      <stop offset="100%" stop-color="#11B7D9"/>
    </linearGradient>
    <filter id="shadow" x="-20%" y="-20%" width="140%" height="140%">
      <feDropShadow dx="0" dy="6" stdDeviation="8" flood-opacity="0.12"/>
    </filter>
    <style>
      .brand { font-family: Inter, Arial, Helvetica, sans-serif; font-weight: 800; letter-spacing: -1.5px; }
      .tag { font-family: Inter, Arial, Helvetica, sans-serif; font-weight: 500; letter-spacing: -0.4px; }
      .mono { fill: #103A7E; }
      .accent { fill: #19BBC6; }
      .muted { fill: #667085; }
    </style>
  </defs>

  <g transform="translate(-8,0) scale(2.5)" filter="url(#shadow)">
    <rect x="20" y="30" width="180" height="170" rx="28" fill="url(#gradA)"/>
    <rect x="20" y="30" width="180" height="42" rx="28" fill="url(#gradB)"/>
    <rect x="45" y="12" width="26" height="42" rx="13" fill="#fff"/>
    <rect x="149" y="12" width="26" height="42" rx="13" fill="#fff"/>
    <rect x="52" y="95" width="26" height="24" rx="5" fill="#ffffff22"/>
    <rect x="86" y="95" width="26" height="24" rx="5" fill="#ffffff22"/>
    <rect x="120" y="95" width="26" height="24" rx="5" fill="#ffffff22"/>
    <rect x="52" y="127" width="26" height="24" rx="5" fill="#ffffff22"/>
    <rect x="86" y="127" width="26" height="24" rx="5" fill="#ffffff22"/>
    <rect x="120" y="127" width="26" height="24" rx="5" fill="#ffffff22"/>
    <path d="M95 101l10 10 22-24" stroke="white" stroke-width="10" stroke-linecap="round" stroke-linejoin="round"/>
    <path d="M84 170c35-22 74-34 119-37" stroke="white" stroke-width="11" stroke-linecap="round"/>
    <path d="M133 137l22 57 13-18 19 18 11-11-19-18 18-13-64-15z" fill="white"/>
  </g>
</svg>
