<svg xmlns="http://www.w3.org/2000/svg" width="512" height="512" viewBox="0 0 512 512" fill="none">
  <defs>
    <linearGradient id="icon-g1" x1="48" y1="64" x2="462" y2="456" gradientUnits="userSpaceOnUse">
      <stop offset="0" stop-color="#0F3D91"/>
      <stop offset="0.58" stop-color="#2B63BE"/>
      <stop offset="1" stop-color="#20C5C7"/>
    </linearGradient>
    <linearGradient id="icon-g2" x1="48" y1="64" x2="462" y2="172" gradientUnits="userSpaceOnUse">
      <stop offset="0" stop-color="#123B84"/>
      <stop offset="1" stop-color="#11B7D9"/>
    </linearGradient>
    <filter id="icon-shadow" x="20" y="20" width="472" height="472" filterUnits="userSpaceOnUse" color-interpolation-filters="sRGB">
      <feDropShadow dx="0" dy="12" stdDeviation="12" flood-color="#0E224D" flood-opacity="0.22"/>
    </filter>
  </defs>

  <g filter="url(#icon-shadow)">
    <rect x="48" y="64" width="416" height="392" rx="92" fill="url(#icon-g1)"/>
    <rect x="48" y="64" width="416" height="122" rx="92" fill="url(#icon-g2)"/>

    <rect x="130" y="30" width="46" height="70" rx="23" fill="#FFFFFF"/>
    <rect x="336" y="30" width="46" height="70" rx="23" fill="#FFFFFF"/>

    <rect x="128" y="224" width="62" height="56" rx="14" fill="#FFFFFF38"/>
    <rect x="224" y="224" width="62" height="56" rx="14" fill="#FFFFFF38"/>
    <rect x="320" y="224" width="62" height="56" rx="14" fill="#FFFFFF38"/>
    <rect x="128" y="304" width="62" height="56" rx="14" fill="#FFFFFF2A"/>
    <rect x="224" y="304" width="62" height="56" rx="14" fill="#FFFFFF2A"/>
    <rect x="320" y="304" width="62" height="56" rx="14" fill="#FFFFFF2A"/>

    <circle cx="350" cy="336" r="76" fill="#0F3D91"/>
    <path d="M316 336L342 362L391 312" stroke="#FFFFFF" stroke-width="20" stroke-linecap="round" stroke-linejoin="round"/>
  </g>
</svg>
