<svg xmlns="http://www.w3.org/2000/svg" width="512" height="512" viewBox="0 0 512 512" fill="none">
  <defs>
    <linearGradient id="icon-g1" x1="4" y1="4" x2="508" y2="508" gradientUnits="userSpaceOnUse">
      <stop offset="0" stop-color="#0F3D91"/>
      <stop offset="0.58" stop-color="#2B63BE"/>
      <stop offset="1" stop-color="#20C5C7"/>
    </linearGradient>
    <linearGradient id="icon-g2" x1="4" y1="4" x2="508" y2="156" gradientUnits="userSpaceOnUse">
      <stop offset="0" stop-color="#123B84"/>
      <stop offset="1" stop-color="#11B7D9"/>
    </linearGradient>
    <radialGradient id="icon-glow" cx="0" cy="0" r="1" gradientUnits="userSpaceOnUse" gradientTransform="translate(394 122) rotate(132) scale(180)">
      <stop offset="0" stop-color="#FFFFFF" stop-opacity="0.28"/>
      <stop offset="1" stop-color="#FFFFFF" stop-opacity="0"/>
    </radialGradient>
  </defs>

  <rect x="4" y="4" width="504" height="504" rx="124" fill="url(#icon-g1)"/>
  <rect x="4" y="4" width="504" height="146" rx="124" fill="url(#icon-g2)"/>
  <circle cx="394" cy="122" r="170" fill="url(#icon-glow)"/>

  <rect x="122" y="0" width="42" height="72" rx="21" fill="#FFFFFF"/>
  <rect x="348" y="0" width="42" height="72" rx="21" fill="#FFFFFF"/>

  <rect x="110" y="184" width="70" height="64" rx="16" fill="#FFFFFF" fill-opacity="0.22"/>
  <rect x="221" y="184" width="70" height="64" rx="16" fill="#FFFFFF" fill-opacity="0.22"/>
  <rect x="332" y="184" width="70" height="64" rx="16" fill="#FFFFFF" fill-opacity="0.22"/>
  <rect x="110" y="274" width="70" height="64" rx="16" fill="#FFFFFF" fill-opacity="0.15"/>
  <rect x="221" y="274" width="70" height="64" rx="16" fill="#FFFFFF" fill-opacity="0.15"/>
  <rect x="332" y="274" width="70" height="64" rx="16" fill="#FFFFFF" fill-opacity="0.15"/>

  <circle cx="360" cy="338" r="86" fill="#17439A"/>
  <path d="M322 338L352 368L407 313" stroke="#FFFFFF" stroke-width="22" stroke-linecap="round" stroke-linejoin="round"/>
</svg>
