<svg width="620" height="120" viewBox="0 0 620 120" fill="none" xmlns="http://www.w3.org/2000/svg">
  <defs>
    <linearGradient id="site-dark-g1" x1="6" y1="10" x2="114" y2="110" gradientUnits="userSpaceOnUse">
      <stop offset="0" stop-color="#174AA6"/>
      <stop offset="0.58" stop-color="#2D6FDE"/>
      <stop offset="1" stop-color="#2AD8D2"/>
    </linearGradient>
    <linearGradient id="site-dark-g2" x1="6" y1="10" x2="114" y2="40" gradientUnits="userSpaceOnUse">
      <stop offset="0" stop-color="#1A4BA5"/>
      <stop offset="1" stop-color="#1ABFD6"/>
    </linearGradient>
  </defs>

  <g transform="translate(12 8) scale(0.92)">
    <rect x="6" y="10" width="108" height="100" rx="24" fill="url(#site-dark-g1)"/>
    <rect x="6" y="10" width="108" height="30" rx="24" fill="url(#site-dark-g2)"/>
    <rect x="26" y="0" width="12" height="22" rx="6" fill="#FFFFFF"/>
    <rect x="82" y="0" width="12" height="22" rx="6" fill="#FFFFFF"/>
    <rect x="27" y="53" width="16" height="14" rx="4" fill="#FFFFFF3E"/>
    <rect x="50" y="53" width="16" height="14" rx="4" fill="#FFFFFF3E"/>
    <rect x="73" y="53" width="16" height="14" rx="4" fill="#FFFFFF3E"/>
    <rect x="27" y="73" width="16" height="14" rx="4" fill="#FFFFFF2E"/>
    <rect x="50" y="73" width="16" height="14" rx="4" fill="#FFFFFF2E"/>
    <rect x="73" y="73" width="16" height="14" rx="4" fill="#FFFFFF2E"/>
    <circle cx="84" cy="82" r="20" fill="#123B84"/>
    <path d="M74 82L81 89L94 75" stroke="#FFFFFF" stroke-width="6" stroke-linecap="round" stroke-linejoin="round"/>
  </g>

  <text x="128" y="76" fill="#E7ECFF" font-family="Inter, Avenir Next, Segoe UI, Arial, sans-serif" font-size="54" font-weight="800" letter-spacing="-1.1">Plate</text>
  <text x="262" y="76" fill="#2AD8D2" font-family="Inter, Avenir Next, Segoe UI, Arial, sans-serif" font-size="54" font-weight="800" letter-spacing="-1.1">Book</text>
</svg>
